<svg version="1.2" xmlns="http://www.w3.org/2000/svg" viewBox="0 0 271 173" width="271" height="173"><defs><clipPath clipPathUnits="userSpaceOnUse" id="cp1"><path d="m-33.67-75.33h311.22v344h-311.22z"/></clipPath><clipPath clipPathUnits="userSpaceOnUse" id="cp2"><path d="m-33.67-75.33h312v344h-312z"/></clipPath><clipPath clipPathUnits="userSpaceOnUse" id="cp3"><path d="m-3-52.67h276v249.34h-276z"/></clipPath></defs><style></style><g clip-path="url(#cp1)"><g clip-path="url(#cp2)"><g clip-path="url(#cp3)"><path  d="m201.9 141.9q10.8 0 20.1 1.7 9.2 1.7 17.4 5.3 8.3 3.5 16 9.1 7.8 5.5 15.4 13.2l-1 1.2q-7.1-6.2-16.2-10.4-9.1-4.1-19-6.5-9.8-2.3-19.8-3.3-9.9-1-19-1-14.1 0-27.6 1.7-13.5 1.8-27.3 4l-15.5 2.4q-13.5 2.2-27.2 4-13.6 1.7-27.6 1.7-13.1 0-25.6-3.7-12.6-3.7-22.4-10.9-9.8-7.3-15.9-18.2-6-11-6-25.5 0-8.9 2.5-17.3 2.4-8.5 7.1-15.7 4.7-7.1 11.4-12.7 6.8-5.7 15.2-8.9v-36.4q0-4.9-1.9-9.4-1.8-4.4-7-5.9h32.5q-5.4 1.5-7.2 5.9-1.7 4.5-1.7 9.4v32.7q2.7-0.7 5.4-1 2.7-0.2 5.5-0.2 13.2 0 25 4.3 11.8 4.3 21.2 13.6v-49.7q0-4.9-1.9-9.2-1.8-4.3-7-5.8h32.5q-5.4 1.5-7.1 5.8-1.7 4.3-1.7 9.2v90.3q0 4.9 1.9 9.4 2 4.4 6.9 5.9h-32.5q5.2-1.5 7-6.1 1.9-4.5 1.9-9.4v-37.7q-8.4-8.1-19-12.9-10.5-4.8-22.3-4.8-4.2 0-8 0.2-3.8 0.1-7.8 1.1v54.3q0 4.9 1.9 9.4 1.8 4.4 7 5.9h-32.5q5.2-1.5 7-6.1 1.9-4.5 1.9-9.4v-49.2q-15.5 7.9-21.9 22.4-6.4 14.5-6.4 31 0 13.5 5.5 23.6 5.6 10 14.5 16.7 9 6.6 20.7 9.8 11.7 3.2 23.7 3.2 14.8 0 28.7-2.6 13.9-2.5 27.9-6l15.7-3.9q14.1-3.5 28-6 13.9-2.6 28.6-2.6z"/></g></g></g></svg>