<svg xmlns="http://www.w3.org/2000/svg" xmlns:xlink="http://www.w3.org/1999/xlink" width="326" zoomAndPan="magnify" viewBox="0 0 244.5 116.249996" height="155" preserveAspectRatio="xMidYMid meet" version="1.0"><defs><g/><clipPath id="1686910210"><rect x="0" width="82" y="0" height="74"/></clipPath><clipPath id="8bd2df848e"><rect x="0" width="173" y="0" height="69"/></clipPath></defs><g transform="matrix(1, 0, 0, 1, 15, 20)"><g clip-path="url(#1686910210)"><g fill="#f6f4f0" fill-opacity="1"><g transform="translate(7.23698, 51.769488)"><g><path d="M 53.046875 6.109375 C 55.148438 6.109375 57.097656 6.273438 58.890625 6.609375 C 60.691406 6.941406 62.394531 7.457031 64 8.15625 C 65.601562 8.851562 67.160156 9.738281 68.671875 10.8125 C 70.179688 11.894531 71.679688 13.175781 73.171875 14.65625 L 72.875 15.015625 C 71.488281 13.816406 69.910156 12.8125 68.140625 12 C 66.367188 11.1875 64.523438 10.550781 62.609375 10.09375 C 60.691406 9.644531 58.757812 9.320312 56.8125 9.125 C 54.875 8.9375 53.019531 8.84375 51.25 8.84375 C 48.519531 8.84375 45.835938 9.007812 43.203125 9.34375 C 40.566406 9.675781 37.90625 10.0625 35.21875 10.5 L 30.6875 11.21875 C 28.050781 11.644531 25.40625 12.023438 22.75 12.359375 C 20.09375 12.691406 17.394531 12.859375 14.65625 12.859375 C 12.125 12.859375 9.632812 12.5 7.1875 11.78125 C 4.738281 11.0625 2.554688 9.992188 0.640625 8.578125 C -1.273438 7.171875 -2.816406 5.398438 -3.984375 3.265625 C -5.160156 1.140625 -5.75 -1.335938 -5.75 -4.171875 C -5.75 -5.890625 -5.507812 -7.578125 -5.03125 -9.234375 C -4.550781 -10.890625 -3.851562 -12.410156 -2.9375 -13.796875 C -2.03125 -15.191406 -0.921875 -16.4375 0.390625 -17.53125 C 1.710938 -18.632812 3.1875 -19.5 4.8125 -20.125 L 4.8125 -30.765625 C 4.8125 -31.722656 4.628906 -32.628906 4.265625 -33.484375 C 3.910156 -34.347656 3.234375 -34.925781 2.234375 -35.21875 L 11.71875 -35.21875 C 10.664062 -34.925781 9.96875 -34.347656 9.625 -33.484375 C 9.289062 -32.628906 9.125 -31.722656 9.125 -30.765625 L 9.125 -21.203125 C 9.65625 -21.347656 10.179688 -21.441406 10.703125 -21.484375 C 11.234375 -21.535156 11.765625 -21.5625 12.296875 -21.5625 C 14.878906 -21.5625 17.320312 -21.140625 19.625 -20.296875 C 21.925781 -19.460938 23.984375 -18.132812 25.796875 -16.3125 L 25.796875 -30.828125 C 25.796875 -31.785156 25.613281 -32.679688 25.25 -33.515625 C 24.894531 -34.359375 24.21875 -34.925781 23.21875 -35.21875 L 32.703125 -35.21875 C 31.648438 -34.925781 30.953125 -34.359375 30.609375 -33.515625 C 30.273438 -32.679688 30.109375 -31.785156 30.109375 -30.828125 L 30.109375 -4.453125 C 30.109375 -3.492188 30.300781 -2.582031 30.6875 -1.71875 C 31.070312 -0.863281 31.742188 -0.289062 32.703125 0 L 23.21875 0 C 24.21875 -0.289062 24.894531 -0.878906 25.25 -1.765625 C 25.613281 -2.648438 25.796875 -3.570312 25.796875 -4.53125 L 25.796875 -15.53125 C 24.171875 -17.101562 22.328125 -18.359375 20.265625 -19.296875 C 18.203125 -20.234375 16.023438 -20.703125 13.734375 -20.703125 C 12.910156 -20.703125 12.128906 -20.6875 11.390625 -20.65625 C 10.648438 -20.632812 9.894531 -20.53125 9.125 -20.34375 L 9.125 -4.453125 C 9.125 -3.492188 9.300781 -2.582031 9.65625 -1.71875 C 10.019531 -0.863281 10.707031 -0.289062 11.71875 0 L 2.234375 0 C 3.234375 -0.289062 3.910156 -0.878906 4.265625 -1.765625 C 4.628906 -2.648438 4.8125 -3.570312 4.8125 -4.53125 L 4.8125 -18.90625 C 1.789062 -17.375 -0.335938 -15.191406 -1.578125 -12.359375 C -2.828125 -9.535156 -3.453125 -6.519531 -3.453125 -3.3125 C -3.453125 -0.675781 -2.910156 1.625 -1.828125 3.59375 C -0.753906 5.5625 0.65625 7.191406 2.40625 8.484375 C 4.15625 9.773438 6.164062 10.734375 8.4375 11.359375 C 10.71875 11.984375 13.03125 12.296875 15.375 12.296875 C 18.25 12.296875 21.039062 12.039062 23.75 11.53125 C 26.457031 11.03125 29.175781 10.445312 31.90625 9.78125 L 36.515625 8.625 C 39.242188 7.957031 41.960938 7.367188 44.671875 6.859375 C 47.378906 6.359375 50.171875 6.109375 53.046875 6.109375 Z M 53.046875 6.109375 "/></g></g></g></g></g><g transform="matrix(1, 0, 0, 1, 54, 23)"><g clip-path="url(#8bd2df848e)"><g fill="#f6f4f0" fill-opacity="1"><g transform="translate(0.56851, 47.980382)"><g><path d="M 16.640625 -40.34375 L 13.453125 -36.203125 L 12.5625 -36.203125 L 13.859375 -40.34375 Z M 15.421875 -0.546875 C 17.546875 -0.546875 19.625 -1.039062 21.65625 -2.03125 C 23.695312 -3.03125 25.238281 -4.503906 26.28125 -6.453125 L 24.71875 0 L 2.375 0 C 3.375 -0.3125 4.03125 -0.882812 4.34375 -1.71875 C 4.664062 -2.5625 4.828125 -3.4375 4.828125 -4.34375 L 4.828125 -29.140625 C 4.828125 -30.046875 4.664062 -30.894531 4.34375 -31.6875 C 4.03125 -32.476562 3.375 -33.007812 2.375 -33.28125 L 24.25 -33.28125 L 25.609375 -26.890625 C 24.566406 -28.890625 23.171875 -30.363281 21.421875 -31.3125 C 19.679688 -32.257812 17.703125 -32.734375 15.484375 -32.734375 L 8.96875 -32.734375 L 8.96875 -17.1875 L 13.171875 -17.1875 C 14.398438 -17.1875 15.535156 -17.445312 16.578125 -17.96875 C 17.617188 -18.488281 18.316406 -19.40625 18.671875 -20.71875 L 18.671875 -13.25 C 18.316406 -14.5625 17.617188 -15.453125 16.578125 -15.921875 C 15.535156 -16.398438 14.398438 -16.640625 13.171875 -16.640625 L 8.96875 -16.640625 L 8.96875 -0.546875 Z M 15.421875 -0.546875 "/></g></g></g><g fill="#f6f4f0" fill-opacity="1"><g transform="translate(23.046104, 47.980382)"><g><path d="M 8.96875 -4.21875 C 8.96875 -3.3125 9.144531 -2.457031 9.5 -1.65625 C 9.863281 -0.863281 10.5 -0.3125 11.40625 0 L 2.4375 0 C 3.394531 -0.3125 4.03125 -0.882812 4.34375 -1.71875 C 4.664062 -2.5625 4.828125 -3.4375 4.828125 -4.34375 L 4.828125 -29.140625 C 4.828125 -30.046875 4.664062 -30.894531 4.34375 -31.6875 C 4.03125 -32.476562 3.394531 -33.007812 2.4375 -33.28125 L 13.984375 -33.28125 C 15.617188 -33.28125 17.21875 -33.097656 18.78125 -32.734375 C 20.34375 -32.367188 21.734375 -31.789062 22.953125 -31 C 24.179688 -30.207031 25.164062 -29.164062 25.90625 -27.875 C 26.65625 -26.59375 27.03125 -25.019531 27.03125 -23.15625 C 27.03125 -20.488281 26.222656 -18.316406 24.609375 -16.640625 C 23.003906 -14.960938 20.957031 -13.832031 18.46875 -13.25 L 24.65625 -3.265625 C 25.15625 -2.535156 25.742188 -1.875 26.421875 -1.28125 C 27.097656 -0.695312 27.820312 -0.269531 28.59375 0 L 22.28125 0 L 14.203125 -13.109375 L 8.96875 -13.109375 Z M 8.96875 -13.578125 L 13.578125 -13.578125 C 16.429688 -13.578125 18.6875 -14.457031 20.34375 -16.21875 C 22 -17.988281 22.828125 -20.300781 22.828125 -23.15625 C 22.828125 -26.144531 22.03125 -28.488281 20.4375 -30.1875 C 18.851562 -31.882812 16.566406 -32.734375 13.578125 -32.734375 L 8.96875 -32.734375 Z M 8.96875 -13.578125 "/></g></g></g><g fill="#f6f4f0" fill-opacity="1"><g transform="translate(47.900613, 47.980382)"><g><path d="M 8.96875 -4.34375 C 8.96875 -3.4375 9.125 -2.5625 9.4375 -1.71875 C 9.757812 -0.882812 10.394531 -0.3125 11.34375 0 L 2.375 0 C 3.375 -0.3125 4.03125 -0.875 4.34375 -1.6875 C 4.664062 -2.507812 4.828125 -3.394531 4.828125 -4.34375 L 4.828125 -29.140625 C 4.828125 -30.046875 4.664062 -30.882812 4.34375 -31.65625 C 4.03125 -32.425781 3.375 -32.96875 2.375 -33.28125 L 11.34375 -33.28125 C 10.394531 -32.96875 9.757812 -32.425781 9.4375 -31.65625 C 9.125 -30.882812 8.96875 -30.046875 8.96875 -29.140625 Z M 8.96875 -4.34375 "/></g></g></g><g fill="#f6f4f0" fill-opacity="1"><g transform="translate(55.437625, 47.980382)"><g><path d="M 18.265625 -4.34375 C 18.265625 -3.4375 18.421875 -2.5625 18.734375 -1.71875 C 19.054688 -0.882812 19.71875 -0.3125 20.71875 0 L 11.6875 0 C 12.726562 -0.3125 13.394531 -0.875 13.6875 -1.6875 C 13.976562 -2.507812 14.125 -3.394531 14.125 -4.34375 L 14.203125 -32.53125 L 11 -32.53125 C 9.1875 -32.53125 7.519531 -32.054688 6 -31.109375 C 4.488281 -30.160156 3.300781 -28.890625 2.4375 -27.296875 L 3.59375 -33.28125 L 28.796875 -33.28125 L 30.015625 -27.375 C 29.160156 -28.863281 27.960938 -30.09375 26.421875 -31.0625 C 24.878906 -32.039062 23.226562 -32.53125 21.46875 -32.53125 L 18.265625 -32.53125 Z M 18.265625 -4.34375 "/></g></g></g><g fill="#f6f4f0" fill-opacity="1"><g transform="translate(81.650363, 47.980382)"><g><path d="M 7.0625 -3.125 C 7.0625 -2.257812 7.3125 -1.578125 7.8125 -1.078125 C 8.3125 -0.585938 8.945312 -0.226562 9.71875 0 L 2.4375 0 C 3.257812 -0.269531 4.03125 -0.765625 4.75 -1.484375 C 5.476562 -2.210938 6 -3.007812 6.3125 -3.875 L 17.859375 -33.6875 L 29.484375 -3.875 C 29.835938 -3.0625 30.296875 -2.28125 30.859375 -1.53125 C 31.429688 -0.78125 32.148438 -0.269531 33.015625 0 L 23.234375 0 C 23.816406 -0.175781 24.300781 -0.570312 24.6875 -1.1875 C 25.070312 -1.800781 25.265625 -2.378906 25.265625 -2.921875 C 25.265625 -3.285156 25.101562 -3.921875 24.78125 -4.828125 C 24.46875 -5.734375 24.109375 -6.707031 23.703125 -7.75 C 23.296875 -8.789062 22.898438 -9.785156 22.515625 -10.734375 C 22.128906 -11.679688 21.847656 -12.382812 21.671875 -12.84375 L 10.453125 -12.84375 C 10.273438 -12.382812 10.003906 -11.710938 9.640625 -10.828125 C 9.273438 -9.953125 8.898438 -9.023438 8.515625 -8.046875 C 8.140625 -7.078125 7.800781 -6.140625 7.5 -5.234375 C 7.207031 -4.328125 7.0625 -3.625 7.0625 -3.125 Z M 10.59375 -13.375 L 21.390625 -13.375 L 16.03125 -27.375 Z M 10.59375 -13.375 "/></g></g></g><g fill="#f6f4f0" fill-opacity="1"><g transform="translate(110.919138, 47.980382)"><g><path d="M 34.171875 -13.71875 C 33.398438 -13.445312 32.832031 -12.957031 32.46875 -12.25 C 32.101562 -11.550781 31.921875 -10.816406 31.921875 -10.046875 L 31.921875 0.265625 C 31.609375 -0.316406 31.191406 -0.925781 30.671875 -1.5625 C 30.148438 -2.195312 29.523438 -2.515625 28.796875 -2.515625 C 28.484375 -2.515625 28.019531 -2.378906 27.40625 -2.109375 C 26.789062 -1.835938 26.078125 -1.53125 25.265625 -1.1875 C 24.453125 -0.84375 23.554688 -0.535156 22.578125 -0.265625 C 21.609375 0.00390625 20.582031 0.140625 19.5 0.140625 C 17.144531 0.140625 14.925781 -0.285156 12.84375 -1.140625 C 10.757812 -2.003906 8.945312 -3.179688 7.40625 -4.671875 C 5.863281 -6.171875 4.648438 -7.941406 3.765625 -9.984375 C 2.878906 -12.023438 2.4375 -14.242188 2.4375 -16.640625 C 2.4375 -19.035156 2.878906 -21.253906 3.765625 -23.296875 C 4.648438 -25.335938 5.863281 -27.101562 7.40625 -28.59375 C 8.945312 -30.09375 10.757812 -31.269531 12.84375 -32.125 C 14.925781 -32.988281 17.144531 -33.421875 19.5 -33.421875 C 21.300781 -33.421875 23.195312 -33.179688 25.1875 -32.703125 C 27.1875 -32.222656 28.910156 -31.394531 30.359375 -30.21875 L 30.359375 -24.796875 C 29.679688 -25.742188 28.910156 -26.691406 28.046875 -27.640625 C 27.191406 -28.597656 26.242188 -29.457031 25.203125 -30.21875 C 24.160156 -30.988281 23.0625 -31.613281 21.90625 -32.09375 C 20.75 -32.570312 19.5625 -32.8125 18.34375 -32.8125 C 16.4375 -32.8125 14.78125 -32.3125 13.375 -31.3125 C 11.976562 -30.3125 10.800781 -29.0625 9.84375 -27.5625 C 8.894531 -26.070312 8.191406 -24.429688 7.734375 -22.640625 C 7.285156 -20.859375 7.0625 -19.15625 7.0625 -17.53125 C 7.0625 -15.664062 7.34375 -13.738281 7.90625 -11.75 C 8.476562 -9.757812 9.304688 -7.925781 10.390625 -6.25 C 11.472656 -4.570312 12.828125 -3.203125 14.453125 -2.140625 C 16.085938 -1.078125 17.945312 -0.546875 20.03125 -0.546875 C 20.894531 -0.546875 21.8125 -0.691406 22.78125 -0.984375 C 23.757812 -1.273438 24.65625 -1.691406 25.46875 -2.234375 C 26.28125 -2.785156 26.945312 -3.441406 27.46875 -4.203125 C 27.988281 -4.972656 28.25 -5.835938 28.25 -6.796875 L 28.25 -7.40625 L 28.328125 -8.484375 C 28.328125 -8.984375 28.3125 -9.492188 28.28125 -10.015625 C 28.257812 -10.535156 28.179688 -11.046875 28.046875 -11.546875 C 27.910156 -12.046875 27.679688 -12.488281 27.359375 -12.875 C 27.046875 -13.257812 26.597656 -13.539062 26.015625 -13.71875 Z M 34.171875 -13.71875 "/></g></g></g><g fill="#f6f4f0" fill-opacity="1"><g transform="translate(139.64462, 47.980382)"><g><path d="M 15.421875 -0.546875 C 17.546875 -0.546875 19.625 -1.039062 21.65625 -2.03125 C 23.695312 -3.03125 25.238281 -4.503906 26.28125 -6.453125 L 24.71875 0 L 2.375 0 C 3.375 -0.3125 4.03125 -0.882812 4.34375 -1.71875 C 4.664062 -2.5625 4.828125 -3.4375 4.828125 -4.34375 L 4.828125 -29.140625 C 4.828125 -30.046875 4.664062 -30.894531 4.34375 -31.6875 C 4.03125 -32.476562 3.375 -33.007812 2.375 -33.28125 L 24.25 -33.28125 L 25.609375 -26.890625 C 24.566406 -28.890625 23.171875 -30.363281 21.421875 -31.3125 C 19.679688 -32.257812 17.703125 -32.734375 15.484375 -32.734375 L 8.96875 -32.734375 L 8.96875 -17.1875 L 13.171875 -17.1875 C 14.398438 -17.1875 15.535156 -17.445312 16.578125 -17.96875 C 17.617188 -18.488281 18.316406 -19.40625 18.671875 -20.71875 L 18.671875 -13.25 C 18.316406 -14.5625 17.617188 -15.453125 16.578125 -15.921875 C 15.535156 -16.398438 14.398438 -16.640625 13.171875 -16.640625 L 8.96875 -16.640625 L 8.96875 -0.546875 Z M 15.421875 -0.546875 "/></g></g></g><g fill="#f6f4f0" fill-opacity="1"><g transform="translate(162.134404, 47.980382)"><g/></g></g></g></g></svg>